HIERARCHY
ROOT Hips
{
  OFFSET -41.9672 68.7184 107.547
  CHANNELS 6 Xposition Yposition Zposition Zrotation Xrotation Yrotation
  JOINT LeftUpLeg
  {
    OFFSET 8.91 -6.27 -2.145
    CHANNELS 3 Zrotation Xrotation Yrotation
    JOINT LeftUpLegRoll
    {
      OFFSET 0 -22.7323 0
      CHANNELS 3 Zrotation Xrotation Yrotation
      JOINT LeftLeg
      {
        OFFSET 0 -22.1464 0
        CHANNELS 3 Zrotation Xrotation Yrotation
        JOINT LeftLegRoll
        {
          OFFSET 0 -22.0919 0
          CHANNELS 3 Zrotation Xrotation Yrotation
          JOINT LeftFoot
          {
            OFFSET 0 -18.609 0
            CHANNELS 3 Zrotation Xrotation Yrotation
            JOINT LeftToeBase
            {
              OFFSET 0 -6.26232 12.9547
              CHANNELS 3 Zrotation Xrotation Yrotation
              End Site
              {
                OFFSET 0 0 5.96686
              }
            }
          }
        }
      }
    }
  }
  JOINT RightUpLeg
  {
    OFFSET -8.91 -6.27 -2.145
    CHANNELS 3 Zrotation Xrotation Yrotation
    JOINT RightUpLegRoll
    {
      OFFSET 0 -22.7323 0
      CHANNELS 3 Zrotation Xrotation Yrotation
      JOINT RightLeg
      {
        OFFSET 0 -22.1464 0
        CHANNELS 3 Zrotation Xrotation Yrotation
        JOINT RightLegRoll
        {
          OFFSET 0 -22.0919 0
          CHANNELS 3 Zrotation Xrotation Yrotation
          JOINT RightFoot
          {
            OFFSET 0 -18.609 0
            CHANNELS 3 Zrotation Xrotation Yrotation
            JOINT RightToeBase
            {
              OFFSET 0 -6.26232 12.9547
              CHANNELS 3 Zrotation Xrotation Yrotation
              End Site
              {
                OFFSET 0 0.000942417 5.96686
              }
            }
          }
        }
      }
    }
  }
  JOINT Spine
  {
    OFFSET 0 7.43174 -2.06162
    CHANNELS 3 Zrotation Xrotation Yrotation
    JOINT Spine1
    {
      OFFSET -1.68772e-005 12.1899 -1.41951
      CHANNELS 3 Zrotation Xrotation Yrotation
      JOINT Spine2
      {
        OFFSET 0 11.8846 -1.0903
        CHANNELS 3 Zrotation Xrotation Yrotation
        JOINT Spine3
        {
          OFFSET 1.84329e-005 10.5137 1.04001
          CHANNELS 3 Zrotation Xrotation Yrotation
          JOINT Neck
          {
            OFFSET 0 11.5156 1.94702
            CHANNELS 3 Zrotation Xrotation Yrotation
            JOINT Head
            {
              OFFSET -1.26215e-005 11.0733 1.65432
              CHANNELS 3 Zrotation Xrotation Yrotation
              End Site
              {
                OFFSET 0 17.7047 0
              }
            }
          }
          JOINT LeftShoulder
          {
            OFFSET 7 4.56855 2.0674
            CHANNELS 3 Zrotation Xrotation Yrotation
            JOINT LeftArm
            {
              OFFSET 10.7073 0 0
              CHANNELS 3 Zrotation Xrotation Yrotation
              JOINT LeftArmRoll
              {
                OFFSET 15.2612 0 0
                CHANNELS 3 Zrotation Xrotation Yrotation
                JOINT LeftForeArm
                {
                  OFFSET 12.0443 0 0
                  CHANNELS 3 Zrotation Xrotation Yrotation
                  JOINT LeftForeArmRoll
                  {
                    OFFSET 16.3277 0 0
                    CHANNELS 3 Zrotation Xrotation Yrotation
                    JOINT LeftHand
                    {
                      OFFSET 10.3694 0 0
                      CHANNELS 3 Zrotation Xrotation Yrotation
                      JOINT LeftHandThumb1
                      {
                        OFFSET 4.34876 -0.798502 4.28243
                        CHANNELS 3 Zrotation Xrotation Yrotation
                        JOINT LeftHandThumb2
                        {
                          OFFSET 2.51259 -0.536099 0.707454
                          CHANNELS 3 Zrotation Xrotation Yrotation
                          JOINT LeftHandThumb3
                          {
                            OFFSET 2.54314 0 0
                            CHANNELS 3 Zrotation Xrotation Yrotation
                            JOINT LeftHandThumb4
                            {
                              OFFSET 2.66675 0 0
                              CHANNELS 3 Zrotation Xrotation Yrotation
                              End Site
                              {
                                OFFSET 1 0 0
                              }
                            }
                          }
                        }
                      }
                      JOINT LeftHandIndex1
                      {
                        OFFSET 8.82198 0.199729 3.47167
                        CHANNELS 3 Zrotation Xrotation Yrotation
                        JOINT LeftHandIndex2
                        {
                          OFFSET 4.22532 0 -0.000262656
                          CHANNELS 3 Zrotation Xrotation Yrotation
                          JOINT LeftHandIndex3
                          {
                            OFFSET 2.65394 0 -0.00016516
                            CHANNELS 3 Zrotation Xrotation Yrotation
                            JOINT LeftHandIndex4
                            {
                              OFFSET 1.95822 0 -0.00012217
                              CHANNELS 3 Zrotation Xrotation Yrotation
                              End Site
                              {
                                OFFSET 1 0 0
                              }
                            }
                          }
                        }
                      }
                      JOINT LeftHandMiddle1
                      {
                        OFFSET 8.80988 0.50089 1.30468
                        CHANNELS 3 Zrotation Xrotation Yrotation
                        JOINT LeftHandMiddle2
                        {
                          OFFSET 4.86325 0 0
                          CHANNELS 3 Zrotation Xrotation Yrotation
                          JOINT LeftHandMiddle3
                          {
                            OFFSET 2.76524 0 0
                            CHANNELS 3 Zrotation Xrotation Yrotation
                            JOINT LeftHandMiddle4
                            {
                              OFFSET 2.00563 0 0
                              CHANNELS 3 Zrotation Xrotation Yrotation
                              End Site
                              {
                                OFFSET 1 0 0
                              }
                            }
                          }
                        }
                      }
                      JOINT LeftHandRing1
                      {
                        OFFSET 8.89376 0.37992 -0.793159
                        CHANNELS 3 Zrotation Xrotation Yrotation
                        JOINT LeftHandRing2
                        {
                          OFFSET 4.53776 0 -0.000282138
                          CHANNELS 3 Zrotation Xrotation Yrotation
                          JOINT LeftHandRing3
                          {
                            OFFSET 2.30453 0 -0.000143448
                            CHANNELS 3 Zrotation Xrotation Yrotation
                            JOINT LeftHandRing4
                            {
                              OFFSET 1.92335 0 -0.00012044
                              CHANNELS 3 Zrotation Xrotation Yrotation
                              End Site
                              {
                                OFFSET 1 0 0
                              }
                            }
                          }
                        }
                      }
                      JOINT LeftHandPinky1
                      {
                        OFFSET 8.88227 -0.313027 -2.49036
                        CHANNELS 3 Zrotation Xrotation Yrotation
                        JOINT LeftHandPinky2
                        {
                          OFFSET 3.0441 0 0
                          CHANNELS 3 Zrotation Xrotation Yrotation
                          JOINT LeftHandPinky3
                          {
                            OFFSET 1.9745 0 0
                            CHANNELS 3 Zrotation Xrotation Yrotation
                            JOINT LeftHandPinky4
                            {
                              OFFSET 1.66661 0 0
                              CHANNELS 3 Zrotation Xrotation Yrotation
                              End Site
                              {
                                OFFSET 1 0 0
                              }
                            }
                          }
                        }
                      }
                    }
                  }
                }
              }
            }
          }
          JOINT RightShoulder
          {
            OFFSET -7 4.56855 2.0673
            CHANNELS 3 Zrotation Xrotation Yrotation
            JOINT RightArm
            {
              OFFSET -10.7073 0 0
              CHANNELS 3 Zrotation Xrotation Yrotation
              JOINT RightArmRoll
              {
                OFFSET -15.2612 0 0
                CHANNELS 3 Zrotation Xrotation Yrotation
                JOINT RightForeArm
                {
                  OFFSET -12.0444 0 0
                  CHANNELS 3 Zrotation Xrotation Yrotation
                  JOINT RightForeArmRoll
                  {
                    OFFSET -16.3276 0 0
                    CHANNELS 3 Zrotation Xrotation Yrotation
                    JOINT RightHand
                    {
                      OFFSET -10.3694 0 0
                      CHANNELS 3 Zrotation Xrotation Yrotation
                      JOINT RightHandThumb1
                      {
                        OFFSET -4.34838 -0.798501 4.28282
                        CHANNELS 3 Zrotation Xrotation Yrotation
                        JOINT RightHandThumb2
                        {
                          OFFSET -2.51253 -0.536099 0.707679
                          CHANNELS 3 Zrotation Xrotation Yrotation
                          JOINT RightHandThumb3
                          {
                            OFFSET -2.54159 0 0.0888232
                            CHANNELS 3 Zrotation Xrotation Yrotation
                            JOINT RightHandThumb4
                            {
                              OFFSET -2.66512 0 0.0931403
                              CHANNELS 3 Zrotation Xrotation Yrotation
                              End Site
                              {
                                OFFSET 1 0 0
                              }
                            }
                          }
                        }
                      }
                      JOINT RightHandIndex1
                      {
                        OFFSET -8.82167 0.199732 3.47246
                        CHANNELS 3 Zrotation Xrotation Yrotation
                        JOINT RightHandIndex2
                        {
                          OFFSET -4.22532 0 0.0001146
                          CHANNELS 3 Zrotation Xrotation Yrotation
                          JOINT RightHandIndex3
                          {
                            OFFSET -2.65394 0 7.19601e-005
                            CHANNELS 3 Zrotation Xrotation Yrotation
                            JOINT RightHandIndex4
                            {
                              OFFSET -1.95822 0 5.30956e-005
                              CHANNELS 3 Zrotation Xrotation Yrotation
                              End Site
                              {
                                OFFSET 1 0 0
                              }
                            }
                          }
                        }
                      }
                      JOINT RightHandMiddle1
                      {
                        OFFSET -8.80976 0.500893 1.30547
                        CHANNELS 3 Zrotation Xrotation Yrotation
                        JOINT RightHandMiddle2
                        {
                          OFFSET -4.86325 0 0.000131881
                          CHANNELS 3 Zrotation Xrotation Yrotation
                          JOINT RightHandMiddle3
                          {
                            OFFSET -2.76524 0 7.49854e-005
                            CHANNELS 3 Zrotation Xrotation Yrotation
                            JOINT RightHandMiddle4
                            {
                              OFFSET -2.00563 0 5.43888e-005
                              CHANNELS 3 Zrotation Xrotation Yrotation
                              End Site
                              {
                                OFFSET 1 0 0
                              }
                            }
                          }
                        }
                      }
                      JOINT RightHandRing1
                      {
                        OFFSET -8.89383 0.379922 -0.792364
                        CHANNELS 3 Zrotation Xrotation Yrotation
                        JOINT RightHandRing2
                        {
                          OFFSET -4.53776 0 0.000123049
                          CHANNELS 3 Zrotation Xrotation Yrotation
                          JOINT RightHandRing3
                          {
                            OFFSET -2.30453 0 6.24859e-005
                            CHANNELS 3 Zrotation Xrotation Yrotation
                            JOINT RightHandRing4
                            {
                              OFFSET -1.92335 0 5.21537e-005
                              CHANNELS 3 Zrotation Xrotation Yrotation
                              End Site
                              {
                                OFFSET 1 0 0
                              }
                            }
                          }
                        }
                      }
                      JOINT RightHandPinky1
                      {
                        OFFSET -8.8825 -0.313025 -2.48956
                        CHANNELS 3 Zrotation Xrotation Yrotation
                        JOINT RightHandPinky2
                        {
                          OFFSET -3.0478 0 8.26466e-005
                          CHANNELS 3 Zrotation Xrotation Yrotation
                          JOINT RightHandPinky3
                          {
                            OFFSET -1.9769 0 5.36145e-005
                            CHANNELS 3 Zrotation Xrotation Yrotation
                            JOINT RightHandPinky4
                            {
                              OFFSET -1.66864 0 4.5245e-005
                              CHANNELS 3 Zrotation Xrotation Yrotation
                              End Site
                              {
                                OFFSET 1 0 0
                              }
                            }
                          }
                        }
                      }
                    }
                  }
                }
              }
            }
          }
        }
      }
    }
  }
}
MOTION
Frames:	5
Frame Time:	0.0333333
-45.1834 84.1432 110.063 -4.50182 -25.0898 31.0446 17.047 -30.2536 17.8746 3.92152e-017 -5.23082e-016 8.57484 -1.92209e-007 71.573 -8.48456 8.51436e-017 7.68218e-016 -12.6489 -5.64012 -10.7319 -0.530188 -3.04134 -1.13272 -0.0601788 -5.88933 -14.3855 -12.3704 9.25852e-017 8.00656e-016 -13.1924 -2.10434e-005 83.8335 4.35032 2.24184e-017 -3.95974e-016 6.48077 16.9265 -10.7001 1.59211 -4.09009 -6.01005 -0.428965 -0.138508 -0.149156 0.221946 -0.447887 -0.23693 0.390321 -0.447898 -0.236992 0.390271 -0.447909 -0.237053 0.390221 -15.0417 6.70858 -0.424853 -11.1227 -29.4621 -6.68583 -9.84007 0 11.161 -48.7196 13.4482 -28.1091 0 34.0652 0 4.72252 3.94475 -50.214 0 9.22142 0 -11.0061 -0.182722 1.8964 0.000223998 6.84512e-005 0.000320789 -0.000297586 -1.03919e-005 2 0.000360293 0 0 0 0 0 -13.4073 -0.463923 0.175372 -13.4087 0 0 -13.4139 0 0 0 0 0 -13.397 -0.463572 1.39767 -13.4053 0 0 -13.4073 0 0 0 0 0 -13.3708 -0.462682 0.928407 -13.3805 0 0 -13.3879 0 0 0 0 0 -13.2279 -0.457824 -0.252639 -13.2379 0 0 -13.2666 0 0 0 0 0 7.09507 -1.49583e-015 -13.4779 53.6881 20.0017 13.3089 6.96112e-015 44.7731 -2.86725e-015 -2.08075 4.12465 26.7995 -7.13498e-006 6.92303 -2.72868e-006 23.0902 0.744549 3.64377 0.000322072 -2.96601e-005 0.000139036 -0.00060615 2.11672e-005 -2 0.000210859 0 0 0 0 0 13.4071 -0.463914 -0.175482 13.4088 0 0 13.4139 0 0 0 0 0 13.398 -0.463606 0.598663 13.3942 0 0 13.3919 0 0 0 0 0 13.3737 -0.462779 1.06794 13.3681 0 0 13.3684 0 0 0 0 0 13.2283 -0.457839 2.25254 13.2127 0 0 13.226 0 0 0 0 0 
-44.3956 81.1842 109.518 -4.26627 -29.1614 36.031 13.5791 -29.8863 16.0947 5.01589e-017 -5.9112e-016 9.70031 2.44364e-006 66.261 -12.8906 1.95598e-016 1.15505e-015 -19.2227 -9.13737 -7.71276 -0.617232 -3.04134 -1.13272 -0.0601788 -10.1549 -14.0666 -15.072 9.29832e-017 8.02352e-016 -13.2208 -180 89.0976 -171.612 8.32299e-017 -7.5964e-016 12.5053 16.819 -3.08356 0.451557 -2.1171 -4.41039 -0.162879 -0.297718 -0.263295 0.300323 -0.47326 -0.432133 0.503274 -0.473247 -0.432148 0.503273 -0.473234 -0.432163 0.503272 -15.5784 5.61155 0.865599 -11.2945 -27.6005 -5.15041 -9.57779 0 12.2588 -49.2962 14.5228 -30.2577 0 34.4111 0 4.46835 3.05055 -55.7453 0 8.1111 0 -5.22387 -0.137176 3.00633 0.000223998 6.84512e-005 0.000320789 -0.000297586 -1.03919e-005 2 0.000360293 0 0 0 0 0 -13.2386 -0.45819 0.173864 -13.24 0 0 -13.2451 0 0 0 0 0 -13.2284 -0.457843 1.40573 -13.2366 0 0 -13.2385 0 0 0 0 0 -13.2025 -0.456962 0.94217 -13.212 0 0 -13.2192 0 0 0 0 0 -13.0612 -0.452159 -0.223966 -13.071 0 0 -13.0987 0 0 0 0 0 5.43949 -1.32067e-015 -11.8265 53.5707 20.5964 13.6755 7.15286e-015 45.5515 -3.00322e-015 -2.73464 6.21621 23.8032 -6.9774e-006 10.1816 -2.75212e-006 29.7552 1.85457 6.97303 0.000322072 -2.96601e-005 0.000139036 -0.00060615 2.11672e-005 -2 0.000210859 0 0 0 0 0 13.2383 -0.458181 -0.173971 13.24 0 0 13.2451 0 0 0 0 0 13.2294 -0.457875 0.590614 13.2256 0 0 13.2234 0 0 0 0 0 13.2053 -0.457056 1.05418 13.1998 0 0 13.2 0 0 0 0 0 13.0615 -0.452169 2.22387 13.0463 0 0 13.0588 0 0 0 0 0 
-43.3425 77.0562 109.096 -4.58787 -34.1092 40.1384 11.0678 -29.6662 14.7151 5.72838e-017 -6.31387e-016 10.3682 1.77952e-006 68.4367 -11.2117 1.48174e-016 1.00881e-015 -16.7117 17.2984 -7.97749 1.2154 -3.04134 -1.13272 -0.0601788 -13.0685 -13.2523 -15.7387 7.04962e-017 6.99761e-016 -11.5055 -180 83.9926 -165.332 2.52726e-016 -1.30743e-015 21.8807 20.976 3.13467 -0.584737 0.544873 -2.20064 0.0209232 -0.0177307 -0.30041 0.37917 -0.237108 -0.474903 0.685407 -0.237149 -0.47499 0.685333 -0.237193 -0.475075 0.685258 -14.8223 5.63389 2.36741 -12.3904 -26.4415 -3.16293 -9.36728 0 11.7765 -50.0942 14.8644 -31.4778 0 33.8582 0 4.13872 2.20028 -62.0505 0 7.02928 0 -1.85649 -0.0769036 4.74375 0.000223998 6.84512e-005 0.000320789 -0.000297586 -1.03919e-005 2 0.000360293 0 0 0 0 0 -13.0699 -0.452454 0.172333 -13.0712 0 0 -13.0762 0 0 0 0 0 -13.0598 -0.452109 1.41377 -13.0678 0 0 -13.0697 0 0 0 0 0 -13.0342 -0.451239 0.955949 -13.0436 0 0 -13.0504 0 0 0 0 0 -12.8946 -0.44649 -0.195263 -12.9042 0 0 -12.9308 0 0 0 0 0 4.40355 -1.26576e-015 -11.3647 50.6868 20.1394 14.7543 7.31458e-015 46.1917 -3.11931e-015 -3.39564 7.90454 23.3379 -6.84372e-006 12.8955 -2.77887e-006 36.7208 2.76867 8.32917 0.000322072 -2.96601e-005 0.000139036 -0.00060615 2.11672e-005 -2 0.000210859 0 0 0 0 0 13.0696 -0.452444 -0.172437 13.0712 0 0 13.0763 0 0 0 0 0 13.0607 -0.45214 0.582568 13.0571 0 0 13.0548 0 0 0 0 0 13.0368 -0.451329 1.0404 13.0316 0 0 13.0316 0 0 0 0 0 12.8948 -0.446497 2.19517 12.88 0 0 12.8916 0 0 0 0 0 
-42.3929 72.2799 108.289 -3.55011 -39.7925 45.4796 11.6999 -29.0352 14.6421 4.93825e-017 -5.8656e-016 9.62477 -2.08922e-006 74.9839 -11.1102 1.45492e-016 9.99838e-016 -16.5587 28.0239 -6.01959 1.50347 -3.04134 -1.13272 -0.0601788 -14.8911 -11.2892 -15.1253 4.37292e-017 5.52189e-016 -9.05589 -180 81.1165 -162.042 3.76747e-016 -1.58161e-015 26.7968 22.8255 2.79916 -0.569473 0.544873 -2.20064 0.0209232 0.176835 -0.0964809 0.300938 -0.0683776 -0.12649 0.611464 -0.0684675 -0.126612 0.611429 -0.0685588 -0.126733 0.611393 -12.1027 6.96826 4.22308 -14.5418 -26.2313 -0.348148 -8.34232 0 11.9178 -50.3492 15.7358 -34.4229 0 33.8451 0 4.06356 1.64961 -67.9415 0 6.57759 0 2.1889 0.131443 6.87209 0.000223998 6.84512e-005 0.000320789 -0.000297586 -1.03919e-005 2 0.000360293 0 0 0 0 0 -12.9012 -0.446713 0.170779 -12.9025 0 0 -12.9074 0 0 0 0 0 -12.8912 -0.446372 1.42182 -12.8991 0 0 -12.9009 0 0 0 0 0 -12.8659 -0.445511 0.969739 -12.8751 0 0 -12.8817 0 0 0 0 0 -12.728 -0.440817 -0.166532 -12.7374 0 0 -12.7629 0 0 0 0 0 3.91216 -1.2429e-015 -11.1724 46.3366 18.2873 15.8016 7.21728e-015 45.8083 -3.04931e-015 -3.85916 8.72406 23.9769 -6.77358e-006 14.297 -2.79536e-006 40.1374 2.63936 7.21641 0.000322072 -2.96601e-005 0.000139036 -0.00060615 2.11672e-005 -2 0.000210859 0 0 0 0 0 12.9009 -0.446704 -0.17088 12.9025 0 0 12.9074 0 0 0 0 0 12.892 -0.446402 0.574524 12.8885 0 0 12.8863 0 0 0 0 0 12.8684 -0.445598 1.02662 12.8633 0 0 12.8633 0 0 0 0 0 12.7281 -0.440821 2.16644 12.7136 0 0 12.7245 0 0 0 0 0 
-41.7833 67.1582 107.162 -1.76118 -45.0272 51.6211 12.5473 -31.4092 13.9592 2.95625e-017 -4.54478e-016 7.44336 1.67852e-006 83.5023 -11.4013 1.53251e-016 1.02557e-015 -16.9977 26.6306 -4.55623 1.07885 -3.04134 -1.13272 -0.0601788 -14.5527 -9.83501 -13.449 2.61497e-017 4.27545e-016 -6.99997 -180 80.6492 -169.441 1.31761e-016 -9.52437e-016 15.7527 15.9141 -2.00557 0.275967 0.544873 -2.20064 0.0209232 0.197526 0.0956703 0.209097 -0.160026 0.18281 0.470419 -0.16009 0.182674 0.470451 -0.160155 0.182537 0.470482 -7.25115 10.4961 5.79109 -17.4268 -26.4822 2.87221 -6.4579 0 11.4397 -50.3752 16.2076 -37.9016 0 33.2913 0 4.93898 1.54992 -72.62 0 7.76359 0 5.55078 0.452335 9.31031 0.000223998 6.84512e-005 0.000320789 -0.000297586 -1.03919e-005 2 0.000360293 0 0 0 0 0 -12.7325 -0.440968 0.169196 -12.7337 0 0 -12.7386 0 0 0 0 0 -12.7226 -0.440631 1.42986 -12.7304 0 0 -12.7322 0 0 0 0 0 -12.6976 -0.43978 0.983542 -12.7066 0 0 -12.713 0 0 0 0 0 -12.5614 -0.435141 -0.137772 -12.5707 0 0 -12.5951 0 0 0 0 0 5.11649 -1.28441e-015 -11.4838 41.2315 14.5238 16.8817 6.61602e-015 43.3174 -2.62731e-015 -4.14802 9.63273 23.4324 -6.70164e-006 15.7164 -2.81398e-006 37.4568 1.79238 5.28347 0.000322072 -2.96601e-005 0.000139036 -0.00060615 2.11672e-005 -2 0.000210859 0 0 0 0 0 12.7322 -0.440959 -0.169295 12.7337 0 0 12.7386 0 0 0 0 0 12.7234 -0.440659 0.566482 12.72 0 0 12.7178 0 0 0 0 0 12.7 -0.439864 1.01281 12.6951 0 0 12.6949 0 0 0 0 0 12.5614 -0.435141 2.13768 12.5472 0 0 12.5574 0 0 0 0 0 
